<svg viewBox="0 0 60 60" fill="none" xmlns="http://www.w3.org/2000/svg">
    <path d="M28.4094 60C21.1314 60 13.8534 57.2368 8.31206 51.6947C-2.77069 40.6105 -2.77069 22.5789 8.31206 11.4947C13.664 6.14211 20.8157 3.17368 28.4252 3.15789V9.47368C22.5049 9.47368 16.9478 11.7947 12.7799 15.9632C4.15998 24.5842 4.15998 38.6053 12.7799 47.2263C21.3998 55.8474 35.419 55.8474 44.0389 47.2263C48.2068 43.0579 50.5276 37.4842 50.5276 31.5789H56.8425C56.8425 39.1737 53.8745 46.3263 48.5068 51.6947C42.9654 57.2368 35.6874 60 28.4094 60ZM39.5869 42.7579C42.5707 39.7737 44.2126 35.8105 44.2126 31.5789H37.8976C37.8976 34.1053 36.9188 36.4895 35.1348 38.2895C31.4406 41.9842 25.4256 41.9842 21.7314 38.2895C19.9474 36.5053 18.9528 34.1211 18.9528 31.5947C18.9528 29.0684 19.9316 26.6842 21.7314 24.9C23.5153 23.1158 25.8834 22.1211 28.4252 22.1211V15.8053C24.21 15.8053 20.2315 17.4632 17.2635 20.4316C14.2797 23.4158 12.6378 27.3789 12.6378 31.5947C12.6378 35.8105 14.2797 39.7737 17.2635 42.7579C20.3421 45.8368 24.3836 47.3684 28.4252 47.3684C32.4668 47.3684 36.5084 45.8368 39.5869 42.7579ZM60 11.0526L52.4063 7.57895L48.9488 0L37.8976 11.0526V17.6368L26.1992 29.3368C24.9678 30.5684 24.9678 32.5737 26.1992 33.8053C26.8149 34.4211 27.62 34.7368 28.4252 34.7368C29.2304 34.7368 30.0355 34.4211 30.6512 33.8053L42.3497 22.1053H48.933L59.9842 11.0526H60Z" fill="currentColor"/>
</svg>
